<svg width="48" height="49" viewBox="0 0 48 49" fill="none" xmlns="http://www.w3.org/2000/svg">
<path id="Vector" fill-rule="evenodd" clip-rule="evenodd" d="M24.0003 0.636963C18.3027 0.640011 12.792 2.72084 8.45349 6.50737C4.11497 10.2939 1.23156 15.5392 0.318845 21.3054C-0.593873 27.0716 0.523609 32.9827 3.4715 37.9816C6.41938 42.9806 11.0054 46.7415 16.4096 48.5918C17.6019 48.82 18.0509 48.058 18.0509 47.4101C18.0509 46.7622 18.0271 44.8838 18.0191 42.8302C11.3425 44.3174 9.93173 39.925 9.93173 39.925C8.8428 37.0727 7.26903 36.3229 7.26903 36.3229C5.09119 34.799 7.43198 34.8275 7.43198 34.8275C9.8443 35.0027 11.1121 37.3661 11.1121 37.3661C13.2502 41.127 16.7275 40.039 18.0947 39.4034C18.3093 37.8102 18.9332 36.7263 19.6207 36.1111C14.2874 35.4917 8.68383 33.381 8.68383 23.9522C8.65078 21.5069 9.5358 19.1422 11.1558 17.3472C10.9094 16.7278 10.0867 14.226 11.3902 10.8277C11.3902 10.8277 13.4052 10.1676 17.9914 13.3499C21.9251 12.247 26.0755 12.247 30.0092 13.3499C34.5914 10.1676 36.6024 10.8277 36.6024 10.8277C37.9099 14.2178 37.0872 16.7197 36.8408 17.3472C38.4659 19.1425 39.3528 21.5113 39.3167 23.9604C39.3167 33.4095 33.7012 35.4917 28.3599 36.0988C29.2184 36.8649 29.9854 38.3603 29.9854 40.6584C29.9854 43.9507 29.9576 46.5993 29.9576 47.4101C29.9576 48.0661 30.3907 48.8322 31.6068 48.5918C37.0117 46.7412 41.5982 42.9797 44.546 37.9799C47.4938 32.9801 48.6107 27.0681 47.697 21.3014C46.7832 15.5347 43.8984 10.2893 39.5584 6.50342C35.2185 2.71754 29.7065 0.638079 24.0082 0.636963H24.0003Z" fill="#F5F5F5"/>
</svg>
