<svg width="48" height="49" viewBox="0 0 48 49" fill="none" xmlns="http://www.w3.org/2000/svg">
<g id="Mail">
<path id="Subtract" fill-rule="evenodd" clip-rule="evenodd" d="M24 48.4309C10.7452 48.4309 0 37.667 0 24.3891C0 11.1111 10.7452 0.347168 24 0.347168C37.2548 0.347168 48 11.1111 48 24.3891C48 37.667 37.2548 48.4309 24 48.4309ZM23.9995 24.0157C22.049 24.0157 12 18.0318 12 18.0318V17.0974C12 15.9396 12.8948 15 13.9994 15H33.9996C35.1052 15 36 15.9396 36 17.0974L35.984 18.1461C35.984 18.1461 26.0439 24.0157 23.9995 24.0157ZM35.984 19C35.984 19 26.1377 24.3562 23.9995 24.3562C22.049 24.3562 12.015 19 12.016 19L12 31.0209C12 32.1269 12.8958 33.0244 13.9994 33.0244H33.9996C35.1052 33.0244 36 32.1269 36 31.0209L35.984 19Z" fill="#F5F5F5"/>
</g>
</svg>
